<svg id="visual" viewBox="0 0 960 200" width="960" height="200" xmlns="http://www.w3.org/2000/svg" xmlns:xlink="http://www.w3.org/1999/xlink" version="1.1"><rect x="0" y="0" width="960" height="200" fill="#8BC34A"></rect><path d="M0 76L11.5 81.5C23 87 46 98 68.8 100.3C91.7 102.7 114.3 96.3 137.2 94.8C160 93.3 183 96.7 205.8 95.2C228.7 93.7 251.3 87.3 274.2 82.7C297 78 320 75 342.8 79.5C365.7 84 388.3 96 411.2 97.8C434 99.7 457 91.3 480 88.8C503 86.3 526 89.7 548.8 92.3C571.7 95 594.3 97 617.2 96C640 95 663 91 685.8 88.7C708.7 86.3 731.3 85.7 754.2 85.7C777 85.7 800 86.3 822.8 90.5C845.7 94.7 868.3 102.3 891.2 100.3C914 98.3 937 86.7 948.5 80.8L960 75L960 0L948.5 0C937 0 914 0 891.2 0C868.3 0 845.7 0 822.8 0C800 0 777 0 754.2 0C731.3 0 708.7 0 685.8 0C663 0 640 0 617.2 0C594.3 0 571.7 0 548.8 0C526 0 503 0 480 0C457 0 434 0 411.2 0C388.3 0 365.7 0 342.8 0C320 0 297 0 274.2 0C251.3 0 228.7 0 205.8 0C183 0 160 0 137.2 0C114.3 0 91.7 0 68.8 0C46 0 23 0 11.5 0L0 0Z" fill="#8bc34a"></path><path d="M0 79L11.5 76.3C23 73.7 46 68.3 68.8 70.2C91.7 72 114.3 81 137.2 85C160 89 183 88 205.8 85.3C228.7 82.7 251.3 78.3 274.2 75.2C297 72 320 70 342.8 72.5C365.7 75 388.3 82 411.2 86.3C434 90.7 457 92.3 480 89.3C503 86.3 526 78.7 548.8 75.2C571.7 71.7 594.3 72.3 617.2 71.2C640 70 663 67 685.8 65.3C708.7 63.7 731.3 63.3 754.2 62.8C777 62.3 800 61.7 822.8 64.2C845.7 66.7 868.3 72.3 891.2 75.2C914 78 937 78 948.5 78L960 78L960 0L948.5 0C937 0 914 0 891.2 0C868.3 0 845.7 0 822.8 0C800 0 777 0 754.2 0C731.3 0 708.7 0 685.8 0C663 0 640 0 617.2 0C594.3 0 571.7 0 548.8 0C526 0 503 0 480 0C457 0 434 0 411.2 0C388.3 0 365.7 0 342.8 0C320 0 297 0 274.2 0C251.3 0 228.7 0 205.8 0C183 0 160 0 137.2 0C114.3 0 91.7 0 68.8 0C46 0 23 0 11.5 0L0 0Z" fill="#abd278"></path><path d="M0 64L11.5 65.3C23 66.7 46 69.3 68.8 70.7C91.7 72 114.3 72 137.2 69.2C160 66.3 183 60.7 205.8 57.5C228.7 54.3 251.3 53.7 274.2 53.2C297 52.7 320 52.3 342.8 54C365.7 55.7 388.3 59.3 411.2 61.8C434 64.3 457 65.7 480 65.2C503 64.7 526 62.3 548.8 60.3C571.7 58.3 594.3 56.7 617.2 57.5C640 58.3 663 61.7 685.8 61.3C708.7 61 731.3 57 754.2 55.2C777 53.3 800 53.7 822.8 56.3C845.7 59 868.3 64 891.2 62.7C914 61.3 937 53.7 948.5 49.8L960 46L960 0L948.5 0C937 0 914 0 891.2 0C868.3 0 845.7 0 822.8 0C800 0 777 0 754.2 0C731.3 0 708.7 0 685.8 0C663 0 640 0 617.2 0C594.3 0 571.7 0 548.8 0C526 0 503 0 480 0C457 0 434 0 411.2 0C388.3 0 365.7 0 342.8 0C320 0 297 0 274.2 0C251.3 0 228.7 0 205.8 0C183 0 160 0 137.2 0C114.3 0 91.7 0 68.8 0C46 0 23 0 11.5 0L0 0Z" fill="#c8e1a5"></path><path d="M0 31L11.5 30C23 29 46 27 68.8 28.7C91.7 30.3 114.3 35.7 137.2 36.2C160 36.7 183 32.3 205.8 33.2C228.7 34 251.3 40 274.2 43.5C297 47 320 48 342.8 49.3C365.7 50.7 388.3 52.3 411.2 49C434 45.7 457 37.3 480 37.2C503 37 526 45 548.8 47.8C571.7 50.7 594.3 48.3 617.2 44.3C640 40.3 663 34.7 685.8 36C708.7 37.3 731.3 45.7 754.2 45.2C777 44.7 800 35.3 822.8 30.7C845.7 26 868.3 26 891.2 26.5C914 27 937 28 948.5 28.5L960 29L960 0L948.5 0C937 0 914 0 891.2 0C868.3 0 845.7 0 822.8 0C800 0 777 0 754.2 0C731.3 0 708.7 0 685.8 0C663 0 640 0 617.2 0C594.3 0 571.7 0 548.8 0C526 0 503 0 480 0C457 0 434 0 411.2 0C388.3 0 365.7 0 342.8 0C320 0 297 0 274.2 0C251.3 0 228.7 0 205.8 0C183 0 160 0 137.2 0C114.3 0 91.7 0 68.8 0C46 0 23 0 11.5 0L0 0Z" fill="#e4f0d2"></path><path d="M0 12L11.5 15.7C23 19.3 46 26.7 68.8 27.7C91.7 28.7 114.3 23.3 137.2 21.5C160 19.7 183 21.3 205.8 22.7C228.7 24 251.3 25 274.2 25.8C297 26.7 320 27.3 342.8 27.2C365.7 27 388.3 26 411.2 25.5C434 25 457 25 480 24C503 23 526 21 548.8 20C571.7 19 594.3 19 617.2 18C640 17 663 15 685.8 14.3C708.7 13.7 731.3 14.3 754.2 15.7C777 17 800 19 822.8 21.3C845.7 23.7 868.3 26.3 891.2 28.2C914 30 937 31 948.5 31.5L960 32L960 0L948.5 0C937 0 914 0 891.2 0C868.3 0 845.7 0 822.8 0C800 0 777 0 754.2 0C731.3 0 708.7 0 685.8 0C663 0 640 0 617.2 0C594.3 0 571.7 0 548.8 0C526 0 503 0 480 0C457 0 434 0 411.2 0C388.3 0 365.7 0 342.8 0C320 0 297 0 274.2 0C251.3 0 228.7 0 205.8 0C183 0 160 0 137.2 0C114.3 0 91.7 0 68.8 0C46 0 23 0 11.5 0L0 0Z" fill="#ffffff"></path></svg>