<svg id="visual" viewBox="0 0 960 450" width="960" height="450" xmlns="http://www.w3.org/2000/svg" xmlns:xlink="http://www.w3.org/1999/xlink" version="1.1"><rect x="0" y="0" width="960" height="450" fill="#8BC34A"></rect><defs><linearGradient id="grad1_0" x1="53.1%" y1="0%" x2="100%" y2="100%"><stop offset="7.333333333333333%" stop-color="#388e3c" stop-opacity="1"></stop><stop offset="92.66666666666667%" stop-color="#388e3c" stop-opacity="1"></stop></linearGradient></defs><defs><linearGradient id="grad1_1" x1="53.1%" y1="0%" x2="100%" y2="100%"><stop offset="7.333333333333333%" stop-color="#388e3c" stop-opacity="1"></stop><stop offset="92.66666666666667%" stop-color="#8bc34a" stop-opacity="1"></stop></linearGradient></defs><defs><linearGradient id="grad2_0" x1="0%" y1="0%" x2="46.9%" y2="100%"><stop offset="7.333333333333333%" stop-color="#388e3c" stop-opacity="1"></stop><stop offset="92.66666666666667%" stop-color="#388e3c" stop-opacity="1"></stop></linearGradient></defs><defs><linearGradient id="grad2_1" x1="0%" y1="0%" x2="46.9%" y2="100%"><stop offset="7.333333333333333%" stop-color="#8bc34a" stop-opacity="1"></stop><stop offset="92.66666666666667%" stop-color="#388e3c" stop-opacity="1"></stop></linearGradient></defs><g transform="translate(960, 0)"><path d="M0 382.5C-16.3 330.8 -32.7 279 -64.5 282.7C-96.4 286.4 -143.8 345.5 -166 344.6C-188.1 343.7 -185 282.7 -203.3 254.9C-221.5 227 -261.2 232.4 -266.6 212.6C-272 192.9 -243.1 148 -259.5 125C-275.9 101.9 -337.5 100.6 -365.6 83.4C-393.6 66.3 -388.1 33.1 -382.5 0L0 0Z" fill="#61a943"></path><path d="M0 191.3C-8.2 165.4 -16.3 139.5 -32.3 141.4C-48.2 143.2 -71.9 172.8 -83 172.3C-94.1 171.8 -92.5 141.4 -101.6 127.4C-110.8 113.5 -130.6 116.2 -133.3 106.3C-136 96.4 -121.5 74 -129.7 62.5C-137.9 51 -168.8 50.3 -182.8 41.7C-196.8 33.1 -194 16.6 -191.2 0L0 0Z" fill="#388e3c"></path></g><g transform="translate(0, 450)"><path d="M0 -382.5C27.7 -364.3 55.4 -346.1 73.9 -323.7C92.3 -301.2 101.5 -274.5 132.3 -274.8C163.1 -275.1 215.5 -302.4 228.2 -286.2C240.9 -269.9 213.8 -210 235.3 -187.7C256.9 -165.4 327.1 -180.6 344.6 -166C362.2 -151.3 327.1 -106.7 324.7 -74.1C322.2 -41.5 352.3 -20.7 382.5 0L0 0Z" fill="#61a943"></path><path d="M0 -191.2C13.9 -182.2 27.7 -173.1 36.9 -161.8C46.2 -150.6 50.8 -137.2 66.2 -137.4C81.6 -137.5 107.8 -151.2 114.1 -143.1C120.4 -134.9 106.9 -105 117.7 -93.8C128.4 -82.7 163.5 -90.3 172.3 -83C181.1 -75.7 163.6 -53.4 162.3 -37C161.1 -20.7 176.2 -10.4 191.3 0L0 0Z" fill="#388e3c"></path></g></svg>